<svg width="45" height="45" viewBox="0 0 45 45" fill="none" xmlns="http://www.w3.org/2000/svg">
<rect width="45" height="45" rx="10" fill="white"/>
<path d="M33.2804 28.024H26.9924L25.9844 31H21.6884L27.7844 14.152H32.5364L38.6324 31H34.2884L33.2804 28.024ZM32.2244 24.856L30.1364 18.688L28.0724 24.856H32.2244Z" fill="#1563D8"/>
<path d="M9.61635 22.36C8.64035 22.568 7.85635 23.056 7.26435 23.824C6.67235 24.576 6.37635 25.44 6.37635 26.416C6.37635 27.824 6.87235 28.944 7.86435 29.776C8.84035 30.592 10.2084 31 11.9684 31L19.8164 31L19.8164 14.152L12.2324 14.152C10.5204 14.152 9.18435 14.544 8.22435 15.328C7.24835 16.112 6.76035 17.176 6.76035 18.52C6.76035 19.512 7.02435 20.336 7.55235 20.992C8.06435 21.648 8.75235 22.104 9.61635 22.36ZM15.7124 20.968H13.0244C12.3524 20.968 11.8404 20.824 11.4884 20.536C11.1204 20.232 10.9364 19.792 10.9364 19.216C10.9364 18.64 11.1204 18.2 11.4884 17.896C11.8404 17.592 12.3524 17.44 13.0244 17.44H15.7124V20.968ZM12.6884 27.688C12.0004 27.688 11.4724 27.536 11.1044 27.232C10.7204 26.912 10.5284 26.456 10.5284 25.864C10.5284 25.272 10.7284 24.808 11.1284 24.472C11.5124 24.136 12.0484 23.968 12.7364 23.968H15.7124L15.7124 27.688H12.6884Z" fill="black"/>
</svg>
